<svg xmlns="http://www.w3.org/2000/svg" xmlns:xlink="http://www.w3.org/1999/xlink" aria-hidden="true" style="position: absolute; width: 0; height: 0; overflow: hidden;" version="1.1">
  <defs>
    <symbol id="full" viewBox="0 0 376 178">
            <g transform="translate(0.000000,95.000000) scale(0.100000,-0.100000)"
            fill="#000000" stroke="none">
            <path class="cls-2" d="M4364 811 c-86 -39 -124 -135 -90 -226 10 -25 29 -54 43 -65 l26 -20
            -28 0 c-20 0 -26 -4 -21 -15 4 -12 -3 -15 -29 -15 -42 0 -48 -24 -9 -34 30 -8
            27 -30 -4 -34 -28 -4 -29 -32 -2 -32 12 0 20 -7 20 -16 0 -9 -9 -18 -20 -21
            -11 -3 -20 -12 -20 -19 0 -12 36 -14 213 -12 l212 3 3 28 c2 16 -2 34 -8 42
            -7 9 -8 15 0 20 14 8 13 48 -2 63 -7 7 -20 12 -30 12 -11 0 -15 5 -12 15 5 11
            -1 15 -21 15 l-27 0 26 31 c29 34 34 69 11 69 -8 0 -15 9 -15 21 0 11 -4 17
            -10 14 -6 -4 -10 10 -10 34 0 28 -8 49 -27 73 l-27 33 35 -32 c58 -54 94 -37
            47 22 -47 60 -147 81 -224 46z"/>
            <path class="cls-2" d="M260 790 c0 -13 -7 -20 -20 -20 -15 0 -20 -7 -20 -25 0 -21 -5 -25
            -29 -25 -17 0 -33 -5 -36 -10 -4 -6 -16 -8 -27 -4 -15 4 -30 -4 -59 -32 -21
            -21 -39 -43 -39 -48 0 -5 12 -23 27 -39 25 -26 26 -29 7 -23 -33 10 -41 -11
            -42 -121 -1 -84 1 -103 13 -103 8 0 12 -6 9 -13 -8 -21 22 -80 60 -116 30 -29
            38 -32 51 -21 9 8 15 9 15 2 0 -34 72 -66 96 -42 6 6 20 6 41 -2 26 -10 35 -9
            57 5 14 10 26 24 26 32 0 13 3 13 19 3 17 -10 23 -9 41 7 34 31 81 109 77 127
            -3 9 2 19 9 22 12 5 14 26 10 107 -4 104 -13 125 -46 113 -8 -3 -3 8 13 23 15
            16 27 34 27 39 0 20 -75 83 -100 83 -14 0 -40 3 -57 7 -26 5 -33 11 -33 30 0
            17 -6 24 -20 24 -13 0 -20 7 -20 20 0 15 -7 20 -25 20 -18 0 -25 -5 -25 -20z
            m-85 -127 c13 29 78 32 83 4 4 -21 -15 -47 -35 -47 -23 0 -28 31 -8 46 10 8
            15 14 10 14 -13 0 -105 -98 -105 -112 1 -7 7 -1 16 14 19 36 51 53 69 38 8 -6
            24 -9 37 -6 13 3 17 3 10 0 -6 -3 -10 -9 -7 -13 2 -5 -6 -6 -19 -4 -25 5 -66
            -26 -66 -48 0 -7 9 0 21 15 11 14 24 26 28 26 4 0 7 -29 7 -64 -1 -35 3 -62 7
            -59 5 3 6 26 2 50 -4 31 -3 43 4 39 7 -4 8 -1 5 8 -4 10 -1 16 9 16 9 0 21 2
            29 5 7 3 18 -4 23 -17 11 -23 35 -37 35 -19 0 6 -5 10 -11 8 -6 -1 -14 4 -16
            11 -3 6 2 12 10 12 18 0 38 -43 27 -60 -5 -8 -7 -17 -4 -21 2 -4 -3 -9 -11
            -13 -8 -3 -17 -1 -20 4 -4 6 -1 10 4 10 6 0 11 7 11 15 0 8 -5 15 -11 15 -5 0
            -8 -4 -5 -9 3 -5 -10 -19 -30 -30 -20 -12 -33 -25 -30 -29 4 -3 11 0 16 8 7
            11 10 8 10 -12 0 -27 -2 -28 -55 -28 -54 0 -55 0 -55 -30 0 -34 55 -102 101
            -125 25 -13 30 -12 65 14 74 54 79 63 82 168 4 86 2 97 -18 118 -12 12 -34 25
            -49 28 -25 5 -28 10 -27 44 1 34 4 38 29 41 37 4 60 -15 54 -46 -3 -15 1 -26
            10 -29 9 -3 21 -20 29 -37 7 -17 13 -24 14 -15 0 9 -9 28 -20 42 -25 32 -25
            45 2 74 l22 23 33 -32 c40 -38 41 -47 8 -78 -23 -21 -25 -31 -25 -104 0 -45
            -5 -98 -11 -119 -10 -38 -72 -117 -91 -117 -6 0 8 20 31 45 22 24 41 48 41 51
            0 4 -17 -13 -39 -37 -21 -24 -56 -54 -78 -66 l-40 -23 -44 28 c-47 30 -109 95
            -109 114 0 6 -3 9 -6 5 -13 -12 38 -76 86 -108 50 -34 60 -55 38 -77 -8 -8 -9
            -12 -1 -12 6 0 16 12 22 28 10 25 10 25 8 3 -1 -13 -13 -31 -27 -40 -14 -9
            -21 -11 -16 -3 5 8 1 12 -11 12 -24 0 -43 19 -36 36 7 18 43 18 43 0 0 -8 -6
            -17 -12 -19 -10 -4 -10 -6 0 -6 7 -1 15 6 19 15 4 11 -11 30 -47 62 -72 63
            -90 105 -90 218 0 87 -1 91 -30 119 l-30 29 37 39 38 38 25 -30 c26 -30 26
            -30 35 -8z"/>
            <path class="cls-2" d="M2440 795 c0 -8 -7 -15 -15 -15 -9 0 -15 -9 -15 -25 0 -24 -2 -25
            -67 -25 -38 0 -74 -4 -81 -9 -11 -6 -13 -47 -10 -192 3 -207 8 -224 81 -283
            37 -30 43 -31 132 -31 89 0 95 1 132 31 73 59 78 76 81 283 3 145 1 186 -10
            192 -7 5 -43 9 -80 9 -66 0 -68 1 -68 25 0 16 -6 25 -15 25 -8 0 -15 7 -15 15
            0 9 -9 15 -25 15 -16 0 -25 -6 -25 -15z m158 -289 c-4 -188 -4 -188 -137 -184
            l-96 3 -17 35 c-14 28 -18 61 -18 163 l0 127 136 0 136 0 -4 -144z"/>
            <path class="cls-2" d="M1096 674 c-9 -8 -16 -27 -17 -42 0 -25 -1 -24 -16 11 -22 54 -48 50
            -70 -13 -10 -28 -20 -44 -24 -38 -4 7 -4 19 1 28 5 9 6 26 3 38 -4 18 -13 22
            -49 22 l-44 0 0 -60 c0 -47 3 -60 15 -60 9 0 15 9 16 23 l0 22 16 -22 c11 -16
            26 -23 49 -23 19 0 34 5 34 10 0 6 9 10 20 10 11 0 20 -4 20 -9 0 -6 28 -9 63
            -8 56 2 62 4 65 25 4 23 -21 32 -33 12 -10 -17 -25 -1 -25 26 0 23 3 25 30 19
            22 -5 30 -3 30 7 0 36 -56 51 -84 22z"/>
            <path class="cls-2" d="M670 675 c0 -2 9 -29 21 -60 27 -72 51 -75 70 -7 l14 47 5 -45 c5
            -45 5 -45 48 -48 37 -3 42 -1 42 17 0 16 -7 21 -27 22 -24 2 -25 2 -5 6 12 2
            22 11 22 18 0 7 -10 16 -22 18 -20 4 -19 4 5 6 17 0 27 7 27 16 0 12 -14 15
            -65 15 -58 0 -65 -2 -65 -19 0 -30 -17 -34 -24 -6 -4 16 -13 25 -26 25 -11 0
            -20 -2 -20 -5z"/>
            <path class="cls-2" d="M1190 620 c0 -47 3 -60 15 -60 9 0 15 9 16 23 l0 22 16 -22 c8 -13
            24 -23 34 -23 21 0 23 4 10 29 -6 10 -6 23 0 32 6 10 9 8 9 -11 0 -43 37 -62
            84 -44 22 8 23 114 2 114 -10 0 -16 -14 -18 -42 -2 -24 -7 -43 -13 -43 -5 0
            -11 19 -13 43 -3 33 -7 42 -22 42 -10 0 -21 -6 -23 -12 -4 -10 -6 -10 -6 0 -1
            8 -17 12 -46 12 l-45 0 0 -60z"/>
            <path class="cls-2" d="M2870 650 c-41 -41 -19 -88 50 -109 l35 -11 -42 5 c-36 4 -44 2 -54
            -17 -16 -30 11 -48 73 -48 39 0 54 5 73 25 l25 24 0 -24 c0 -25 1 -25 85 -25
            l85 0 0 30 c0 29 -2 30 -45 30 -25 0 -45 5 -45 10 0 6 16 10 35 10 30 0 35 3
            35 24 0 21 -5 25 -37 29 l-38 4 43 1 c36 2 42 5 42 25 0 12 18 -18 38 -68 37
            -87 39 -90 73 -93 l36 -3 37 88 c21 48 40 94 43 101 4 8 -7 12 -34 12 -37 0
            -39 -2 -58 -50 l-20 -50 -19 50 -19 50 -118 0 -119 0 0 -60 0 -59 -25 24 c-13
            14 -36 25 -50 25 -14 0 -24 4 -20 10 4 6 15 6 32 -1 14 -5 27 -8 28 -7 1 2 8
            14 15 27 16 31 1 41 -67 41 -40 0 -58 -5 -73 -20z"/>
            <path class="cls-2" d="M684 516 c-3 -7 -4 -33 -2 -57 3 -42 5 -44 36 -47 18 -2 40 2 48 9
            11 9 17 9 28 0 8 -7 30 -11 48 -9 33 3 33 3 33 58 0 55 0 55 -33 58 -18 2 -40
            -2 -48 -9 -11 -9 -18 -9 -26 -1 -17 17 -77 15 -84 -2z"/>
            <path class="cls-2" d="M1120 471 c0 -34 4 -61 10 -61 6 0 10 11 10 25 0 14 4 25 9 25 12 0
            41 -29 41 -41 0 -5 13 -9 29 -9 26 0 30 4 33 33 l3 32 20 -32 c30 -51 45 -43
            45 27 0 66 -17 83 -22 23 l-3 -38 -23 38 c-35 55 -52 49 -52 -20 0 -31 -3 -53
            -7 -49 -5 4 -8 29 -8 54 l0 47 -42 3 -43 3 0 -60z"/>
            <path class="cls-2" d="M3308 414 c-20 -20 -117 -21 -130 -2 -6 11 -10 10 -16 0 -6 -9 -42
            -13 -125 -13 -64 -1 -117 -5 -117 -9 0 -5 -10 -6 -22 -2 -21 5 -21 5 3 15 l24
            10 -23 5 c-38 6 -50 -4 -50 -41 l0 -35 109 0 c99 1 109 3 109 19 0 11 5 19 10
            19 6 0 10 -9 10 -20 0 -31 57 -28 63 3 l4 22 2 -22 c1 -21 6 -23 66 -23 58 0
            65 2 65 20 0 11 5 20 10 20 6 0 10 -8 10 -18 0 -15 8 -19 40 -20 38 -2 40 0
            40 28 0 25 -4 30 -24 30 -14 0 -27 -6 -29 -12 -2 -7 -3 -1 -1 15 4 31 -4 34
            -28 11z"/>
            <path class="cls-2" d="M990 319 l0 -60 53 1 c28 0 64 -2 78 -5 17 -5 31 -1 42 10 32 32 21
            48 -47 70 -15 4 -17 8 -7 18 9 9 16 8 33 -2 16 -10 23 -10 26 -2 2 6 12 11 23
            11 16 0 19 -7 19 -50 0 -27 5 -50 10 -50 6 0 10 23 10 50 0 43 3 50 20 50 11
            0 20 4 20 10 0 16 -167 11 -180 -5 -18 -22 -8 -50 20 -53 34 -5 49 -20 30 -32
            -10 -6 -21 -3 -34 8 -14 13 -20 14 -23 5 -7 -19 -63 -17 -63 2 0 9 9 15 25 15
            14 0 25 5 25 10 0 6 -11 10 -25 10 -16 0 -25 6 -25 15 0 10 10 15 30 15 17 0
            30 5 30 10 0 6 -20 10 -45 10 l-45 0 0 -61z"/>
            <path class="cls-2" d="M1270 325 c-23 -55 -20 -86 4 -52 16 21 42 22 54 1 6 -11 22 -14 63
            -12 l54 3 3 43 c4 53 -10 72 -54 72 l-34 0 0 -57 -1 -58 -22 54 c-13 30 -28
            56 -34 58 -5 2 -21 -21 -33 -52z"/>
            <path class="cls-2" d="M3020 256 l0 -45 165 1 c144 1 165 3 165 17 1 14 2 14 11 -1 6 -12
            21 -17 44 -16 31 1 35 4 35 29 0 15 3 34 6 43 4 11 1 16 -10 16 -9 0 -16 -6
            -16 -14 0 -10 -7 -12 -21 -9 -14 4 -26 0 -34 -11 -11 -14 -14 -14 -18 -2 -4
            11 -24 14 -76 14 -68 0 -70 -1 -74 -27 l-4 -26 -2 28 c0 17 -7 27 -16 27 -8 0
            -15 5 -15 10 0 6 -7 10 -15 10 -8 0 -15 -4 -15 -9 0 -5 -9 -11 -20 -14 -12 -3
            -20 -14 -20 -26 0 -15 -6 -21 -22 -20 -16 1 -18 3 -7 6 15 3 28 31 29 56 0 4
            -16 7 -35 7 -35 0 -35 0 -35 -44z"/>
            <path class="cls-2" d="M4219 269 c-16 -32 3 -69 36 -69 14 0 28 7 32 16 5 15 7 15 15 0 11
            -19 49 -21 66 -4 9 9 12 9 12 0 0 -16 92 -16 109 1 11 10 14 10 18 0 6 -16
            103 -18 103 -3 0 6 -9 10 -20 10 -28 0 -25 17 4 22 19 4 26 0 30 -19 8 -29 34
            -30 45 0 21 57 23 67 7 67 -8 0 -18 -10 -22 -22 l-7 -23 -8 23 c-7 18 -16 22
            -54 22 -44 0 -45 -1 -45 -32 l-1 -33 -14 33 c-17 38 -42 42 -51 7 -6 -24 -17
            -26 -20 -4 -1 5 -2 13 -3 19 -1 13 -133 11 -148 -2 -9 -7 -13 -7 -13 1 0 21
            -59 12 -71 -10z"/>
            <path class="cls-2" d="M4223 155 c13 -44 24 -44 42 -2 l14 32 1 -32 c0 -31 2 -33 35 -33 27
            0 35 4 35 18 1 16 1 16 14 0 15 -21 42 -24 49 -5 4 8 8 9 14 1 4 -6 29 -11 56
            -11 37 -1 47 3 47 16 1 14 2 14 14 -1 20 -26 26 -22 26 17 l0 34 -56 0 c-47
            -1 -57 -4 -63 -22 -8 -20 -8 -20 -13 1 -8 28 -22 28 -36 0 l-11 -23 0 23 c-1
            20 -5 22 -66 22 -58 0 -67 -2 -74 -22 l-8 -22 -5 22 c-4 12 -11 22 -16 22 -7
            0 -6 -12 1 -35z"/>
            </g>
        </symbol>
  </defs>
</svg>